<svg width="2836" height="647" viewBox="0 0 2836 647" fill="none" xmlns="http://www.w3.org/2000/svg">
<path d="M596.319 275.519L470.18 0.269043H549.22L641.679 174.199L722.371 0.269043H804.744L676.982 275.519V397.088H596.319V275.519Z" fill="white"/>
<path d="M0.425781 397.088H77.3645V135.041L210.552 339.066L343.116 135.041V397.088H415.025V0.269043H324.357L210.552 188.072L95.0289 0.269043H0.425781V397.088Z" fill="white"/>
<path d="M1629.2 397.083H1706.14V135.037L1839.33 339.062L1971.89 135.037V397.083H2043.8V0.264648H1953.13L1839.33 188.067L1723.8 0.264648H1629.2V397.083Z" fill="white"/>
<path d="M998.668 342.711H1138.11L1153.29 397.064H985.156L998.668 342.711Z" fill="white"/>
<path d="M2121.66 342.732H2261.1L2276.28 397.085H2108.15L2121.66 342.732Z" fill="white"/>
<path d="M1109.49 264.82C1079.74 264.82 1056.93 264.82 1029.16 264.82C1041.06 227.133 1054.77 168.343 1065.68 133.632C1061.71 133.632 1069.65 133.632 1065.68 133.632C1076.59 167.352 1095.6 225.15 1109.49 264.82Z" fill="white"/>
<path d="M2232.48 261.874C2202.73 261.874 2179.92 261.874 2152.15 261.874C2164.05 224.187 2177.76 165.398 2188.67 130.686C2184.7 130.686 2192.64 130.686 2188.67 130.686C2199.58 164.406 2218.6 222.204 2232.48 261.874Z" fill="white"/>
<path d="M1238.72 397.073L1121.24 0.67334H1332.29L1330.49 319.422H1574.02V397.073H1238.72Z" fill="white"/>
<rect x="2749.88" y="0.170898" width="85.4616" height="396.916" fill="white"/>
<path fill-rule="evenodd" clip-rule="evenodd" d="M2356.75 397.108L2224.41 0.33961L2579.28 0.324219C2673.3 14.1651 2772.33 171.818 2625.02 284.163L2702.67 397.108H2607.37L2554.43 308.869H2445.01V397.108H2356.75ZM2452.92 80.4803V220.596C2465.86 220.008 2478.22 219.805 2490.16 219.609C2514.69 219.206 2537.45 218.832 2559.8 215.207C2596.63 208.92 2617.29 183.771 2615.49 145.149C2614.59 109.222 2593.94 84.9712 2558.91 81.3785C2534.44 78.8693 2509.98 79.4269 2485.21 79.9914C2474.51 80.2352 2463.76 80.4803 2452.92 80.4803Z" fill="white"/>
<path d="M37.4246 616.348C30.522 616.348 24.5714 615.237 19.573 613.015C14.6539 610.715 10.1314 607.263 6.00574 602.661L18.1448 590.641C20.8424 593.736 23.8177 596.156 27.0707 597.901C30.403 599.567 34.251 600.4 38.6147 600.4C42.5818 600.4 45.6364 599.686 47.7786 598.258C50.0001 596.83 51.1109 594.846 51.1109 592.307C51.1109 590.007 50.3968 588.142 48.9687 586.714C47.5405 585.286 45.6364 584.056 43.2561 583.025C40.9553 581.993 38.3767 581.001 35.5204 580.049C32.7435 579.097 29.9666 578.026 27.1897 576.836C24.4128 575.567 21.8342 574.019 19.454 572.195C17.1531 570.29 15.2886 567.95 13.8605 565.173C12.4323 562.317 11.7183 558.746 11.7183 554.462C11.7183 549.305 12.948 544.862 15.4076 541.133C17.9465 537.404 21.4375 534.587 25.8806 532.683C30.3236 530.7 35.4411 529.708 41.233 529.708C47.1042 529.708 52.4597 530.739 57.2994 532.802C62.2185 534.865 66.2649 537.681 69.4385 541.252L57.2994 553.272C54.7605 550.654 52.182 548.71 49.5637 547.44C47.0248 546.171 44.1289 545.536 40.8759 545.536C37.623 545.536 35.0444 546.171 33.1402 547.44C31.236 548.63 30.284 550.376 30.284 552.677C30.284 554.819 30.998 556.565 32.4262 557.913C33.8543 559.183 35.7188 560.294 38.0197 561.246C40.3999 562.198 42.9785 563.15 45.7554 564.102C48.6116 565.054 51.4282 566.165 54.2051 567.434C56.9821 568.704 59.521 570.33 61.8218 572.314C64.2021 574.218 66.1062 576.677 67.5344 579.692C68.9625 582.628 69.6766 586.278 69.6766 590.641C69.6766 598.655 66.8203 604.962 61.1078 609.564C55.3953 614.086 47.5009 616.348 37.4246 616.348ZM140.683 615.039V532.207H159.368V615.039H140.683ZM114.382 547.321V531.017H185.669V547.321H114.382ZM221.106 615.039L254.429 531.017H271.328L304.294 615.039H284.539L259.308 545.298H266.092L240.505 615.039H221.106ZM240.029 599.805V584.572H285.848V599.805H240.029ZM369.972 583.739L337.601 531.017H359.261L384.134 573.623H370.21L395.083 531.017H416.267L383.658 583.739H369.972ZM367.71 615.039V575.17H386.395V615.039H367.71ZM547.18 615.039V532.207H565.865V615.039H547.18ZM520.878 547.321V531.017H592.166V547.321H520.878ZM658.535 580.406V566.601H676.268C679.997 566.601 682.853 565.649 684.836 563.745C686.899 561.841 687.931 559.262 687.931 556.009C687.931 552.994 686.939 550.495 684.955 548.511C682.972 546.528 680.116 545.536 676.387 545.536H658.535V531.017H678.529C684.083 531.017 688.962 532.088 693.167 534.23C697.372 536.293 700.665 539.189 703.045 542.918C705.425 546.647 706.615 550.931 706.615 555.771C706.615 560.69 705.425 565.014 703.045 568.743C700.665 572.393 697.333 575.249 693.048 577.312C688.764 579.375 683.726 580.406 677.934 580.406H658.535ZM644.254 615.039V531.017H662.938V615.039H644.254ZM689.954 615.039L663.771 578.859L680.909 574.218L712.09 615.039H689.954ZM761.916 615.039V531.017H780.601V615.039H761.916ZM776.198 615.039V598.853H822.255V615.039H776.198ZM776.198 579.93V564.34H818.089V579.93H776.198ZM776.198 547.083V531.017H821.66V547.083H776.198ZM876.79 615.039V531.017H889.881L895.474 547.797V615.039H876.79ZM934.748 615.039L885.24 551.606L889.881 531.017L939.389 594.45L934.748 615.039ZM934.748 615.039L929.75 598.258V531.017H948.434V615.039H934.748ZM1018.92 615.039V598.615H1039.75C1044.83 598.615 1049.27 597.623 1053.08 595.64C1056.89 593.577 1059.82 590.602 1061.89 586.714C1063.95 582.826 1064.98 578.225 1064.98 572.909C1064.98 567.593 1063.91 563.031 1061.77 559.222C1059.7 555.414 1056.77 552.479 1052.96 550.416C1049.23 548.353 1044.83 547.321 1039.75 547.321H1018.33V531.017H1039.99C1046.33 531.017 1052.17 532.048 1057.48 534.111C1062.88 536.095 1067.56 538.991 1071.53 542.799C1075.57 546.528 1078.67 550.971 1080.81 556.128C1083.03 561.206 1084.14 566.839 1084.14 573.028C1084.14 579.137 1083.03 584.77 1080.81 589.927C1078.67 595.084 1075.61 599.527 1071.64 603.256C1067.68 606.986 1063 609.881 1057.6 611.944C1052.28 614.007 1046.49 615.039 1040.23 615.039H1018.92ZM1006.31 615.039V531.017H1024.99V615.039H1006.31ZM1163.51 583.739L1131.14 531.017H1152.8L1177.67 573.623H1163.75L1188.62 531.017H1209.8L1177.2 583.739H1163.51ZM1161.25 615.039V575.17H1179.93V615.039H1161.25Z" fill="white"/>
<path d="M1568.91 615.039L1534.88 571.243L1567.84 531.017H1590.93L1553.8 574.694V567.077L1592.12 615.039H1568.91ZM1518.1 615.039V531.017H1536.78V615.039H1518.1ZM1641.57 615.039V531.017H1660.26V615.039H1641.57ZM1655.85 615.039V598.853H1701.91V615.039H1655.85ZM1655.85 579.93V564.34H1697.74V579.93H1655.85ZM1655.85 547.083V531.017H1701.31V547.083H1655.85ZM1756.44 615.039V531.017H1775.13V615.039H1756.44ZM1770.73 615.039V598.853H1816.78V615.039H1770.73ZM1770.73 579.93V564.34H1812.62V579.93H1770.73ZM1770.73 547.083V531.017H1816.19V547.083H1770.73ZM1885.6 584.453V569.933H1903.69C1905.99 569.933 1908.09 569.457 1910 568.505C1911.9 567.553 1913.41 566.165 1914.52 564.34C1915.63 562.515 1916.18 560.294 1916.18 557.675C1916.18 555.136 1915.63 552.955 1914.52 551.13C1913.41 549.305 1911.9 547.916 1910 546.964C1908.09 546.012 1905.99 545.536 1903.69 545.536H1885.6V531.017H1906.43C1911.74 531.017 1916.54 532.088 1920.83 534.23C1925.11 536.372 1928.48 539.467 1930.94 543.513C1933.48 547.48 1934.75 552.201 1934.75 557.675C1934.75 563.15 1933.48 567.91 1930.94 571.957C1928.48 575.924 1925.11 579.018 1920.83 581.239C1916.54 583.382 1911.74 584.453 1906.43 584.453H1885.6ZM1871.32 615.039V531.017H1890V615.039H1871.32ZM2049.93 615.039V531.017H2068.61V615.039H2049.93ZM2064.21 615.039V598.853H2110.27V615.039H2064.21ZM2064.21 579.93V564.34H2106.1V579.93H2064.21ZM2064.21 547.083V531.017H2109.67V547.083H2064.21ZM2158.49 615.039L2191.82 531.017H2208.71L2241.68 615.039H2221.93L2196.69 545.298H2203.48L2177.89 615.039H2158.49ZM2177.42 599.805V584.572H2223.23V599.805H2177.42ZM2306.51 580.406V566.601H2324.24C2327.97 566.601 2330.82 565.649 2332.81 563.745C2334.87 561.841 2335.9 559.262 2335.9 556.009C2335.9 552.994 2334.91 550.495 2332.93 548.511C2330.94 546.528 2328.09 545.536 2324.36 545.536H2306.51V531.017H2326.5C2332.05 531.017 2336.93 532.088 2341.14 534.23C2345.34 536.293 2348.64 539.189 2351.02 542.918C2353.4 546.647 2354.59 550.931 2354.59 555.771C2354.59 560.69 2353.4 565.014 2351.02 568.743C2348.64 572.393 2345.3 575.249 2341.02 577.312C2336.74 579.375 2331.7 580.406 2325.91 580.406H2306.51ZM2292.23 615.039V531.017H2310.91V615.039H2292.23ZM2337.93 615.039L2311.74 578.859L2328.88 574.218L2360.06 615.039H2337.93ZM2409.89 615.039V531.017H2422.98L2428.57 547.797V615.039H2409.89ZM2467.85 615.039L2418.34 551.606L2422.98 531.017L2472.49 594.45L2467.85 615.039ZM2467.85 615.039L2462.85 598.258V531.017H2481.53V615.039H2467.85ZM2539.41 615.039V531.017H2558.09V615.039H2539.41ZM2615.93 615.039V531.017H2629.02L2634.61 547.797V615.039H2615.93ZM2673.88 615.039L2624.38 551.606L2629.02 531.017L2678.53 594.45L2673.88 615.039ZM2673.88 615.039L2668.89 598.258V531.017H2687.57V615.039H2673.88ZM2785.07 616.348C2778.96 616.348 2773.21 615.237 2767.82 613.015C2762.5 610.794 2757.86 607.739 2753.89 603.852C2749.93 599.885 2746.79 595.283 2744.49 590.046C2742.27 584.73 2741.16 579.018 2741.16 572.909C2741.16 566.799 2742.31 561.127 2744.61 555.89C2746.91 550.654 2750.08 546.092 2754.13 542.204C2758.26 538.237 2763.06 535.182 2768.53 533.04C2774.01 530.819 2779.88 529.708 2786.14 529.708C2793.36 529.708 2799.91 531.017 2805.78 533.635C2811.73 536.253 2816.65 539.863 2820.54 544.465L2807.8 557.199C2805.11 553.708 2801.93 551.09 2798.28 549.345C2794.63 547.599 2790.51 546.726 2785.91 546.726C2780.99 546.726 2776.58 547.837 2772.7 550.059C2768.81 552.201 2765.75 555.255 2763.53 559.222C2761.39 563.11 2760.32 567.672 2760.32 572.909C2760.32 578.145 2761.39 582.747 2763.53 586.714C2765.67 590.681 2768.61 593.775 2772.34 595.997C2776.07 598.218 2780.35 599.329 2785.19 599.329C2790.11 599.329 2794.28 598.417 2797.69 596.592C2801.18 594.688 2803.84 591.99 2805.66 588.499C2807.57 584.929 2808.52 580.605 2808.52 575.527L2820.9 583.858L2783.41 583.263V567.434H2827.56V570.171C2827.56 580.248 2825.74 588.737 2822.09 595.64C2818.52 602.463 2813.52 607.62 2807.09 611.111C2800.74 614.602 2793.4 616.348 2785.07 616.348Z" fill="white"/>
<path d="M1426.32 576.243C1422.77 576.243 1419.62 575.454 1416.85 573.483C1412.91 571.117 1410.15 567.174 1408.97 562.836C1408.18 558.499 1408.97 554.161 1411.73 550.218C1414.88 545.486 1420.4 542.726 1426.32 542.726C1429.87 542.726 1433.02 543.515 1435.78 545.486C1439.73 547.852 1442.49 551.796 1443.67 556.133C1444.46 560.47 1443.67 564.808 1440.91 568.751C1437.75 573.483 1432.23 576.243 1426.32 576.243ZM1426.32 551.007C1422.77 551.007 1420.01 552.584 1418.04 554.95C1416.85 556.922 1416.07 558.893 1416.85 561.259C1417.25 563.625 1418.83 565.597 1421.19 566.78C1422.77 567.962 1424.74 568.357 1426.71 568.357C1430.26 568.357 1433.02 566.78 1434.99 564.414C1436.18 562.442 1436.97 560.47 1436.18 558.105C1435.78 555.739 1434.2 553.767 1431.84 552.584C1430.26 551.401 1428.29 551.007 1426.32 551.007ZM1381.76 611.337H1380.97C1377.82 611.337 1374.66 610.154 1372.3 608.577C1368.35 606.211 1365.59 602.268 1364.41 597.93C1363.62 593.593 1364.41 589.256 1367.17 585.312C1370.33 580.581 1375.85 577.82 1381.76 577.82C1385.31 577.82 1388.46 578.609 1391.22 580.581C1395.17 582.946 1397.93 586.89 1399.11 591.227C1399.9 595.565 1399.11 599.902 1396.35 603.845C1393.2 608.577 1387.68 611.337 1381.76 611.337ZM1381.76 585.707C1378.21 585.707 1375.45 587.284 1373.48 589.65C1372.3 591.621 1371.51 593.593 1372.3 595.959C1372.69 598.325 1374.27 600.296 1376.24 601.479C1377.82 602.268 1379.39 603.057 1381.37 603.057H1381.76C1385.31 603.057 1388.07 601.479 1390.04 599.113C1391.22 597.142 1392.01 595.17 1391.22 592.804C1390.83 590.438 1389.25 588.467 1386.89 587.284C1385.31 586.495 1383.73 585.707 1381.76 585.707ZM1341.15 564.019C1337.6 564.019 1334.44 563.231 1331.68 561.259C1327.74 558.893 1324.98 554.95 1323.8 550.613C1323.01 546.275 1323.8 541.938 1326.56 537.994C1329.71 533.263 1335.23 530.502 1341.15 530.502C1344.7 530.502 1347.85 531.291 1350.61 533.263C1354.55 535.629 1357.31 539.572 1358.5 543.909C1359.28 548.247 1358.5 552.584 1355.74 556.527C1352.58 561.259 1347.06 564.019 1341.15 564.019ZM1341.15 538.783C1337.6 538.783 1334.84 540.36 1332.87 542.726C1331.68 544.698 1330.89 546.669 1331.68 549.035C1332.08 551.401 1333.65 553.373 1336.02 554.556C1337.6 555.344 1339.57 556.133 1341.54 556.133C1345.09 556.133 1347.85 554.556 1349.82 552.19C1351 550.218 1351.79 548.247 1351 545.881C1350.61 543.515 1349.03 541.543 1346.67 540.36C1345.09 539.177 1343.12 538.783 1341.15 538.783ZM1295.8 603.057C1292.25 603.057 1289.1 602.268 1286.34 600.296C1282.39 597.93 1279.63 593.987 1278.45 589.65C1277.66 585.312 1278.45 580.975 1281.21 577.032C1284.36 572.3 1289.89 569.54 1295.8 569.54C1299.35 569.54 1302.5 570.328 1305.26 572.3C1309.21 574.666 1311.97 578.609 1313.15 582.946C1313.94 587.284 1313.15 591.621 1310.39 595.565C1307.24 600.296 1301.71 603.057 1295.8 603.057ZM1295.8 577.426C1292.25 577.426 1289.49 579.003 1287.52 581.369C1286.34 583.341 1285.55 585.312 1286.34 587.678C1286.73 590.438 1288.31 592.41 1290.28 593.593C1294.62 596.353 1301.32 595.17 1304.08 590.833C1305.26 588.861 1306.05 586.89 1305.26 584.524C1304.87 582.158 1303.29 580.186 1300.93 579.003C1299.74 578.215 1297.77 577.426 1295.8 577.426Z" fill="white"/>
<path d="M1325.68 551.778L1331.58 556.999L1309.13 582.397L1303.22 577.176L1325.68 551.778ZM1351.43 555.552L1372.44 585.622L1365.98 590.141L1344.96 560.071L1351.43 555.552ZM1414.02 565.978L1418.63 572.377L1394.01 590.137L1389.39 583.742L1414.02 565.978Z" fill="white"/>
</svg>
